<mxfile host="app.diagrams.net" agent="Mozilla/5.0 (Windows NT 10.0; Win64; x64) AppleWebKit/537.36 (KHTML, like Gecko) Chrome/138.0.0.0 Safari/537.36" version="27.2.0">
  <diagram name="Seite-1" id="mpfzVJrmJnMdptlzmDzX">
    <mxGraphModel dx="1528" dy="848" grid="1" gridSize="10" guides="1" tooltips="1" connect="1" arrows="1" fold="1" page="1" pageScale="1" pageWidth="827" pageHeight="1169" math="0" shadow="0">
      <root>
        <mxCell id="0" />
        <mxCell id="1" parent="0" />
        <mxCell id="-5t0j7DVVLwvzyO4rN3X-67" style="edgeStyle=orthogonalEdgeStyle;rounded=0;orthogonalLoop=1;jettySize=auto;html=1;entryX=0;entryY=0.5;entryDx=0;entryDy=0;endArrow=ERzeroToMany;endFill=0;startArrow=ERone;startFill=0;" edge="1" parent="1" source="-5t0j7DVVLwvzyO4rN3X-69" target="-5t0j7DVVLwvzyO4rN3X-78">
          <mxGeometry relative="1" as="geometry" />
        </mxCell>
        <mxCell id="-5t0j7DVVLwvzyO4rN3X-69" value="Kunde (Debitor)" style="swimlane;fontStyle=0;childLayout=stackLayout;horizontal=1;startSize=30;horizontalStack=0;resizeParent=1;resizeParentMax=0;resizeLast=0;collapsible=1;marginBottom=0;whiteSpace=wrap;html=1;" vertex="1" parent="1">
          <mxGeometry x="140" y="310" width="140" height="270" as="geometry" />
        </mxCell>
        <mxCell id="-5t0j7DVVLwvzyO4rN3X-120" value="- ID: int" style="text;html=1;align=center;verticalAlign=middle;whiteSpace=wrap;rounded=0;" vertex="1" parent="-5t0j7DVVLwvzyO4rN3X-69">
          <mxGeometry y="30" width="140" height="30" as="geometry" />
        </mxCell>
        <mxCell id="-5t0j7DVVLwvzyO4rN3X-71" value="- Name: str" style="text;html=1;align=center;verticalAlign=middle;whiteSpace=wrap;rounded=0;" vertex="1" parent="-5t0j7DVVLwvzyO4rN3X-69">
          <mxGeometry y="60" width="140" height="30" as="geometry" />
        </mxCell>
        <mxCell id="-5t0j7DVVLwvzyO4rN3X-72" value="- Adresse: str" style="text;html=1;align=center;verticalAlign=middle;whiteSpace=wrap;rounded=0;" vertex="1" parent="-5t0j7DVVLwvzyO4rN3X-69">
          <mxGeometry y="90" width="140" height="30" as="geometry" />
        </mxCell>
        <mxCell id="-5t0j7DVVLwvzyO4rN3X-73" value="- Geburtsdatum: date" style="text;html=1;align=center;verticalAlign=middle;whiteSpace=wrap;rounded=0;" vertex="1" parent="-5t0j7DVVLwvzyO4rN3X-69">
          <mxGeometry y="120" width="140" height="30" as="geometry" />
        </mxCell>
        <mxCell id="-5t0j7DVVLwvzyO4rN3X-74" value="- Email: str" style="text;html=1;align=center;verticalAlign=middle;whiteSpace=wrap;rounded=0;" vertex="1" parent="-5t0j7DVVLwvzyO4rN3X-69">
          <mxGeometry y="150" width="140" height="30" as="geometry" />
        </mxCell>
        <mxCell id="-5t0j7DVVLwvzyO4rN3X-117" value="+ ErstelleKunde()" style="text;html=1;align=center;verticalAlign=middle;whiteSpace=wrap;rounded=0;" vertex="1" parent="-5t0j7DVVLwvzyO4rN3X-69">
          <mxGeometry y="180" width="140" height="30" as="geometry" />
        </mxCell>
        <mxCell id="-5t0j7DVVLwvzyO4rN3X-118" value="+ AktuelisiereKunde()" style="text;html=1;align=center;verticalAlign=middle;whiteSpace=wrap;rounded=0;" vertex="1" parent="-5t0j7DVVLwvzyO4rN3X-69">
          <mxGeometry y="210" width="140" height="30" as="geometry" />
        </mxCell>
        <mxCell id="-5t0j7DVVLwvzyO4rN3X-119" value="+ LoescheKunde()" style="text;html=1;align=center;verticalAlign=middle;whiteSpace=wrap;rounded=0;" vertex="1" parent="-5t0j7DVVLwvzyO4rN3X-69">
          <mxGeometry y="240" width="140" height="30" as="geometry" />
        </mxCell>
        <mxCell id="-5t0j7DVVLwvzyO4rN3X-141" value="" style="endArrow=none;html=1;rounded=0;exitX=0;exitY=0;exitDx=0;exitDy=0;entryX=1;entryY=0;entryDx=0;entryDy=0;" edge="1" parent="-5t0j7DVVLwvzyO4rN3X-69" source="-5t0j7DVVLwvzyO4rN3X-117" target="-5t0j7DVVLwvzyO4rN3X-117">
          <mxGeometry width="50" height="50" relative="1" as="geometry">
            <mxPoint x="-60" y="160" as="sourcePoint" />
            <mxPoint x="-10" y="110" as="targetPoint" />
          </mxGeometry>
        </mxCell>
        <mxCell id="-5t0j7DVVLwvzyO4rN3X-75" style="edgeStyle=orthogonalEdgeStyle;rounded=0;orthogonalLoop=1;jettySize=auto;html=1;endArrow=ERone;endFill=0;startArrow=ERone;startFill=0;" edge="1" parent="1" source="-5t0j7DVVLwvzyO4rN3X-78" target="-5t0j7DVVLwvzyO4rN3X-97">
          <mxGeometry relative="1" as="geometry" />
        </mxCell>
        <mxCell id="-5t0j7DVVLwvzyO4rN3X-76" style="edgeStyle=orthogonalEdgeStyle;rounded=0;orthogonalLoop=1;jettySize=auto;html=1;entryX=0.5;entryY=1;entryDx=0;entryDy=0;endArrow=ERone;endFill=0;startArrow=ERone;startFill=0;" edge="1" parent="1" source="-5t0j7DVVLwvzyO4rN3X-78" target="-5t0j7DVVLwvzyO4rN3X-93">
          <mxGeometry relative="1" as="geometry" />
        </mxCell>
        <mxCell id="-5t0j7DVVLwvzyO4rN3X-114" style="edgeStyle=orthogonalEdgeStyle;rounded=0;orthogonalLoop=1;jettySize=auto;html=1;entryX=0;entryY=0.5;entryDx=0;entryDy=0;endArrow=ERzeroToMany;endFill=0;startArrow=ERzeroToMany;startFill=0;" edge="1" parent="1" source="-5t0j7DVVLwvzyO4rN3X-78" target="-5t0j7DVVLwvzyO4rN3X-85">
          <mxGeometry relative="1" as="geometry" />
        </mxCell>
        <mxCell id="-5t0j7DVVLwvzyO4rN3X-78" value="Bestellung" style="swimlane;fontStyle=0;childLayout=stackLayout;horizontal=1;startSize=30;horizontalStack=0;resizeParent=1;resizeParentMax=0;resizeLast=0;collapsible=1;marginBottom=0;whiteSpace=wrap;html=1;" vertex="1" parent="1">
          <mxGeometry x="390" y="325" width="140" height="240" as="geometry" />
        </mxCell>
        <mxCell id="-5t0j7DVVLwvzyO4rN3X-121" value="- ID: str" style="text;html=1;align=center;verticalAlign=middle;whiteSpace=wrap;rounded=0;" vertex="1" parent="-5t0j7DVVLwvzyO4rN3X-78">
          <mxGeometry y="30" width="140" height="30" as="geometry" />
        </mxCell>
        <mxCell id="-5t0j7DVVLwvzyO4rN3X-80" value="- Datum: date" style="text;html=1;align=center;verticalAlign=middle;whiteSpace=wrap;rounded=0;" vertex="1" parent="-5t0j7DVVLwvzyO4rN3X-78">
          <mxGeometry y="60" width="140" height="30" as="geometry" />
        </mxCell>
        <mxCell id="-5t0j7DVVLwvzyO4rN3X-115" value="+ IstGueltig()" style="text;html=1;align=center;verticalAlign=middle;whiteSpace=wrap;rounded=0;" vertex="1" parent="-5t0j7DVVLwvzyO4rN3X-78">
          <mxGeometry y="90" width="140" height="30" as="geometry" />
        </mxCell>
        <mxCell id="-5t0j7DVVLwvzyO4rN3X-122" value="+ Erstelle()" style="text;html=1;align=center;verticalAlign=middle;whiteSpace=wrap;rounded=0;" vertex="1" parent="-5t0j7DVVLwvzyO4rN3X-78">
          <mxGeometry y="120" width="140" height="30" as="geometry" />
        </mxCell>
        <mxCell id="-5t0j7DVVLwvzyO4rN3X-123" value="+ Bearbeiten()" style="text;html=1;align=center;verticalAlign=middle;whiteSpace=wrap;rounded=0;" vertex="1" parent="-5t0j7DVVLwvzyO4rN3X-78">
          <mxGeometry y="150" width="140" height="30" as="geometry" />
        </mxCell>
        <mxCell id="-5t0j7DVVLwvzyO4rN3X-124" value="+ StatusAnzeigen()" style="text;html=1;align=center;verticalAlign=middle;whiteSpace=wrap;rounded=0;" vertex="1" parent="-5t0j7DVVLwvzyO4rN3X-78">
          <mxGeometry y="180" width="140" height="30" as="geometry" />
        </mxCell>
        <mxCell id="-5t0j7DVVLwvzyO4rN3X-125" value="+ Stornieren()" style="text;html=1;align=center;verticalAlign=middle;whiteSpace=wrap;rounded=0;" vertex="1" parent="-5t0j7DVVLwvzyO4rN3X-78">
          <mxGeometry y="210" width="140" height="30" as="geometry" />
        </mxCell>
        <mxCell id="-5t0j7DVVLwvzyO4rN3X-142" value="" style="endArrow=none;html=1;rounded=0;exitX=0;exitY=0.75;exitDx=0;exitDy=0;entryX=1;entryY=0.75;entryDx=0;entryDy=0;" edge="1" parent="-5t0j7DVVLwvzyO4rN3X-78">
          <mxGeometry width="50" height="50" relative="1" as="geometry">
            <mxPoint y="89.5" as="sourcePoint" />
            <mxPoint x="140" y="89.5" as="targetPoint" />
          </mxGeometry>
        </mxCell>
        <mxCell id="-5t0j7DVVLwvzyO4rN3X-82" value="Artikel" style="swimlane;fontStyle=0;childLayout=stackLayout;horizontal=1;startSize=30;horizontalStack=0;resizeParent=1;resizeParentMax=0;resizeLast=0;collapsible=1;marginBottom=0;whiteSpace=wrap;html=1;" vertex="1" parent="1">
          <mxGeometry x="700" y="280" width="140" height="300" as="geometry" />
        </mxCell>
        <mxCell id="-5t0j7DVVLwvzyO4rN3X-126" value="-&amp;nbsp; Artikelnr: int" style="text;html=1;align=center;verticalAlign=middle;whiteSpace=wrap;rounded=0;" vertex="1" parent="-5t0j7DVVLwvzyO4rN3X-82">
          <mxGeometry y="30" width="140" height="30" as="geometry" />
        </mxCell>
        <mxCell id="-5t0j7DVVLwvzyO4rN3X-84" value="- Name: str" style="text;html=1;align=center;verticalAlign=middle;whiteSpace=wrap;rounded=0;" vertex="1" parent="-5t0j7DVVLwvzyO4rN3X-82">
          <mxGeometry y="60" width="140" height="30" as="geometry" />
        </mxCell>
        <mxCell id="-5t0j7DVVLwvzyO4rN3X-85" value="- Beschreibung: str" style="text;html=1;align=center;verticalAlign=middle;whiteSpace=wrap;rounded=0;" vertex="1" parent="-5t0j7DVVLwvzyO4rN3X-82">
          <mxGeometry y="90" width="140" height="30" as="geometry" />
        </mxCell>
        <mxCell id="-5t0j7DVVLwvzyO4rN3X-127" value="- Preis: float" style="text;html=1;align=center;verticalAlign=middle;whiteSpace=wrap;rounded=0;" vertex="1" parent="-5t0j7DVVLwvzyO4rN3X-82">
          <mxGeometry y="120" width="140" height="30" as="geometry" />
        </mxCell>
        <mxCell id="-5t0j7DVVLwvzyO4rN3X-86" value="- Kategorie: str" style="text;html=1;align=center;verticalAlign=middle;whiteSpace=wrap;rounded=0;" vertex="1" parent="-5t0j7DVVLwvzyO4rN3X-82">
          <mxGeometry y="150" width="140" height="30" as="geometry" />
        </mxCell>
        <mxCell id="-5t0j7DVVLwvzyO4rN3X-87" value="- Menge: int" style="text;html=1;align=center;verticalAlign=middle;whiteSpace=wrap;rounded=0;" vertex="1" parent="-5t0j7DVVLwvzyO4rN3X-82">
          <mxGeometry y="180" width="140" height="30" as="geometry" />
        </mxCell>
        <mxCell id="-5t0j7DVVLwvzyO4rN3X-143" value="" style="endArrow=none;html=1;rounded=0;exitX=0;exitY=0.75;exitDx=0;exitDy=0;entryX=1;entryY=0.75;entryDx=0;entryDy=0;" edge="1" parent="-5t0j7DVVLwvzyO4rN3X-82">
          <mxGeometry width="50" height="50" relative="1" as="geometry">
            <mxPoint y="209.17000000000002" as="sourcePoint" />
            <mxPoint x="140" y="209.17000000000002" as="targetPoint" />
          </mxGeometry>
        </mxCell>
        <mxCell id="-5t0j7DVVLwvzyO4rN3X-128" value="+ Hinzufuegen()" style="text;html=1;align=center;verticalAlign=middle;whiteSpace=wrap;rounded=0;" vertex="1" parent="-5t0j7DVVLwvzyO4rN3X-82">
          <mxGeometry y="210" width="140" height="30" as="geometry" />
        </mxCell>
        <mxCell id="-5t0j7DVVLwvzyO4rN3X-130" value="+ Bearbeiten()" style="text;html=1;align=center;verticalAlign=middle;whiteSpace=wrap;rounded=0;" vertex="1" parent="-5t0j7DVVLwvzyO4rN3X-82">
          <mxGeometry y="240" width="140" height="30" as="geometry" />
        </mxCell>
        <mxCell id="-5t0j7DVVLwvzyO4rN3X-131" value="+ Löschen()" style="text;html=1;align=center;verticalAlign=middle;whiteSpace=wrap;rounded=0;" vertex="1" parent="-5t0j7DVVLwvzyO4rN3X-82">
          <mxGeometry y="270" width="140" height="30" as="geometry" />
        </mxCell>
        <mxCell id="-5t0j7DVVLwvzyO4rN3X-88" value="" style="edgeStyle=orthogonalEdgeStyle;rounded=0;orthogonalLoop=1;jettySize=auto;html=1;startArrow=ERzeroToMany;startFill=0;endArrow=ERzeroToMany;endFill=0;entryX=0.5;entryY=1;entryDx=0;entryDy=0;" edge="1" parent="1" source="-5t0j7DVVLwvzyO4rN3X-89" target="-5t0j7DVVLwvzyO4rN3X-131">
          <mxGeometry relative="1" as="geometry">
            <mxPoint x="770" y="610" as="targetPoint" />
          </mxGeometry>
        </mxCell>
        <mxCell id="-5t0j7DVVLwvzyO4rN3X-89" value="Lagerort" style="swimlane;fontStyle=0;childLayout=stackLayout;horizontal=1;startSize=30;horizontalStack=0;resizeParent=1;resizeParentMax=0;resizeLast=0;collapsible=1;marginBottom=0;whiteSpace=wrap;html=1;" vertex="1" parent="1">
          <mxGeometry x="700" y="690" width="140" height="120" as="geometry" />
        </mxCell>
        <mxCell id="-5t0j7DVVLwvzyO4rN3X-91" value="- Name: str" style="text;html=1;align=center;verticalAlign=middle;whiteSpace=wrap;rounded=0;" vertex="1" parent="-5t0j7DVVLwvzyO4rN3X-89">
          <mxGeometry y="30" width="140" height="30" as="geometry" />
        </mxCell>
        <mxCell id="-5t0j7DVVLwvzyO4rN3X-92" value="- Adresse: str" style="text;html=1;align=center;verticalAlign=middle;whiteSpace=wrap;rounded=0;" vertex="1" parent="-5t0j7DVVLwvzyO4rN3X-89">
          <mxGeometry y="60" width="140" height="30" as="geometry" />
        </mxCell>
        <mxCell id="-5t0j7DVVLwvzyO4rN3X-144" value="" style="endArrow=none;html=1;rounded=0;exitX=0;exitY=0.75;exitDx=0;exitDy=0;entryX=1;entryY=0.75;entryDx=0;entryDy=0;" edge="1" parent="-5t0j7DVVLwvzyO4rN3X-89">
          <mxGeometry width="50" height="50" relative="1" as="geometry">
            <mxPoint y="90" as="sourcePoint" />
            <mxPoint x="140" y="90" as="targetPoint" />
          </mxGeometry>
        </mxCell>
        <mxCell id="-5t0j7DVVLwvzyO4rN3X-135" value="+ Lagerbestand()" style="text;html=1;align=center;verticalAlign=middle;whiteSpace=wrap;rounded=0;" vertex="1" parent="-5t0j7DVVLwvzyO4rN3X-89">
          <mxGeometry y="90" width="140" height="30" as="geometry" />
        </mxCell>
        <mxCell id="-5t0j7DVVLwvzyO4rN3X-93" value="Lieferant (Kreditor)" style="swimlane;fontStyle=0;childLayout=stackLayout;horizontal=1;startSize=30;horizontalStack=0;resizeParent=1;resizeParentMax=0;resizeLast=0;collapsible=1;marginBottom=0;whiteSpace=wrap;html=1;" vertex="1" parent="1">
          <mxGeometry x="390" y="40" width="140" height="210" as="geometry" />
        </mxCell>
        <mxCell id="-5t0j7DVVLwvzyO4rN3X-136" value="- ID: str" style="text;html=1;align=center;verticalAlign=middle;whiteSpace=wrap;rounded=0;" vertex="1" parent="-5t0j7DVVLwvzyO4rN3X-93">
          <mxGeometry y="30" width="140" height="30" as="geometry" />
        </mxCell>
        <mxCell id="-5t0j7DVVLwvzyO4rN3X-95" value="- Name: str" style="text;html=1;align=center;verticalAlign=middle;whiteSpace=wrap;rounded=0;" vertex="1" parent="-5t0j7DVVLwvzyO4rN3X-93">
          <mxGeometry y="60" width="140" height="30" as="geometry" />
        </mxCell>
        <mxCell id="-5t0j7DVVLwvzyO4rN3X-96" value="- Adresse: str" style="text;html=1;align=center;verticalAlign=middle;whiteSpace=wrap;rounded=0;" vertex="1" parent="-5t0j7DVVLwvzyO4rN3X-93">
          <mxGeometry y="90" width="140" height="30" as="geometry" />
        </mxCell>
        <mxCell id="-5t0j7DVVLwvzyO4rN3X-137" value="+ ErstelleLiferant()" style="text;html=1;align=center;verticalAlign=middle;whiteSpace=wrap;rounded=0;" vertex="1" parent="-5t0j7DVVLwvzyO4rN3X-93">
          <mxGeometry y="120" width="140" height="30" as="geometry" />
        </mxCell>
        <mxCell id="-5t0j7DVVLwvzyO4rN3X-138" value="+ AktualisiereLiferant()" style="text;html=1;align=center;verticalAlign=middle;whiteSpace=wrap;rounded=0;" vertex="1" parent="-5t0j7DVVLwvzyO4rN3X-93">
          <mxGeometry y="150" width="140" height="30" as="geometry" />
        </mxCell>
        <mxCell id="-5t0j7DVVLwvzyO4rN3X-139" value="+ LoescheKunde()" style="text;html=1;align=center;verticalAlign=middle;whiteSpace=wrap;rounded=0;" vertex="1" parent="-5t0j7DVVLwvzyO4rN3X-93">
          <mxGeometry y="180" width="140" height="30" as="geometry" />
        </mxCell>
        <mxCell id="-5t0j7DVVLwvzyO4rN3X-140" value="" style="endArrow=none;html=1;rounded=0;exitX=0;exitY=1;exitDx=0;exitDy=0;entryX=0.965;entryY=0.006;entryDx=0;entryDy=0;entryPerimeter=0;" edge="1" parent="-5t0j7DVVLwvzyO4rN3X-93" source="-5t0j7DVVLwvzyO4rN3X-96" target="-5t0j7DVVLwvzyO4rN3X-137">
          <mxGeometry width="50" height="50" relative="1" as="geometry">
            <mxPoint x="180" y="130" as="sourcePoint" />
            <mxPoint x="230" y="80" as="targetPoint" />
          </mxGeometry>
        </mxCell>
        <mxCell id="-5t0j7DVVLwvzyO4rN3X-97" value="Zahlung" style="swimlane;fontStyle=0;childLayout=stackLayout;horizontal=1;startSize=30;horizontalStack=0;resizeParent=1;resizeParentMax=0;resizeLast=0;collapsible=1;marginBottom=0;whiteSpace=wrap;html=1;" vertex="1" parent="1">
          <mxGeometry x="390" y="620" width="140" height="210" as="geometry" />
        </mxCell>
        <mxCell id="-5t0j7DVVLwvzyO4rN3X-133" value="- Zahnlungsnummer: int" style="text;html=1;align=center;verticalAlign=middle;whiteSpace=wrap;rounded=0;" vertex="1" parent="-5t0j7DVVLwvzyO4rN3X-97">
          <mxGeometry y="30" width="140" height="30" as="geometry" />
        </mxCell>
        <mxCell id="-5t0j7DVVLwvzyO4rN3X-101" value="- Betrag: float" style="text;html=1;align=center;verticalAlign=middle;whiteSpace=wrap;rounded=0;" vertex="1" parent="-5t0j7DVVLwvzyO4rN3X-97">
          <mxGeometry y="60" width="140" height="30" as="geometry" />
        </mxCell>
        <mxCell id="-5t0j7DVVLwvzyO4rN3X-102" value="- Fälligkeit: date" style="text;html=1;align=center;verticalAlign=middle;whiteSpace=wrap;rounded=0;" vertex="1" parent="-5t0j7DVVLwvzyO4rN3X-97">
          <mxGeometry y="90" width="140" height="30" as="geometry" />
        </mxCell>
        <mxCell id="-5t0j7DVVLwvzyO4rN3X-103" value="- Status: str" style="text;html=1;align=center;verticalAlign=middle;whiteSpace=wrap;rounded=0;" vertex="1" parent="-5t0j7DVVLwvzyO4rN3X-97">
          <mxGeometry y="120" width="140" height="30" as="geometry" />
        </mxCell>
        <mxCell id="-5t0j7DVVLwvzyO4rN3X-145" value="" style="endArrow=none;html=1;rounded=0;exitX=0;exitY=0.75;exitDx=0;exitDy=0;entryX=1;entryY=0.75;entryDx=0;entryDy=0;" edge="1" parent="-5t0j7DVVLwvzyO4rN3X-97">
          <mxGeometry width="50" height="50" relative="1" as="geometry">
            <mxPoint y="150" as="sourcePoint" />
            <mxPoint x="140" y="150" as="targetPoint" />
          </mxGeometry>
        </mxCell>
        <mxCell id="-5t0j7DVVLwvzyO4rN3X-116" value="+ Status()" style="text;html=1;align=center;verticalAlign=middle;whiteSpace=wrap;rounded=0;" vertex="1" parent="-5t0j7DVVLwvzyO4rN3X-97">
          <mxGeometry y="150" width="140" height="30" as="geometry" />
        </mxCell>
        <mxCell id="-5t0j7DVVLwvzyO4rN3X-134" value="+ Bezahlen()" style="text;html=1;align=center;verticalAlign=middle;whiteSpace=wrap;rounded=0;" vertex="1" parent="-5t0j7DVVLwvzyO4rN3X-97">
          <mxGeometry y="180" width="140" height="30" as="geometry" />
        </mxCell>
      </root>
    </mxGraphModel>
  </diagram>
</mxfile>
